<?xml version="1.0" encoding="utf-8"?>
<!-- Generator: Adobe Illustrator 19.0.0, SVG Export Plug-In . SVG Version: 6.00 Build 0)  -->
<svg version="1.1" id="Layer_1" xmlns="http://www.w3.org/2000/svg" xmlns:xlink="http://www.w3.org/1999/xlink" x="0px" y="0px"
	 viewBox="0 0 152 58" style="enable-background:new 0 0 152 58;" xml:space="preserve">
<style type="text/css">
	.st0{fill:none;}
	.st1{fill:#010101;}
	.st2{enable-background:new    ;}
</style>
<rect id="XMLID_4_" x="38" y="36.7" class="st0" width="76" height="8"/>
<g id="XMLID_3_">
	<g id="XMLID_1_">
		<path id="XMLID_102_" class="st1" d="M32.1,21.3c0,0.1,0,7.2,0,7.3c0,4-2,6.3-5.1,8.4c-2.8,1.8-5.3,2.5-9.9,2.5
			c-9.3,0-17-8.2-17-18c0-10,7.7-18.2,17.2-18.2c5.8,0,10.5,2.7,14,7.6l-2.7,2.6c-2.8-4.1-6.5-6.6-11.4-6.6
			c-7.5,0-13.5,6.7-13.5,14.6c0,3.7,1.4,7.2,3.9,9.9c2.4,2.6,5.9,4.1,9.4,4.5c5.8,0.7,11.2-3.5,11.2-7.4c0-0.1,0-3.5,0-3.6h-8.6
			v-3.6L32.1,21.3L32.1,21.3z"/>
		<path id="XMLID_100_" class="st1" d="M65.5,38.9h-3.7V0.6h3.7V38.9z"/>
		<path id="XMLID_98_" class="st1" d="M74.4,38.9h-3.7V0.6h3.7V38.9z"/>
		<path id="XMLID_95_" class="st1" d="M81.3,29c0,3.9,2.9,7.1,7.2,7.1c3.2,0,4.6-1.1,6.1-3.6l3.2,1.8c-2.1,3.8-5.1,5.2-9.5,5.2
			c-6.5,0-10.7-4.8-10.7-10.9c0-6.3,3.8-11.5,10.6-11.5c7,0,10.7,5.7,10.4,12H81.3z M94.5,26c-0.5-3.1-3.2-5.6-6.4-5.6
			c-3.2,0-6.2,2.5-6.6,5.6H94.5z"/>
		<path id="XMLID_93_" class="st1" d="M105.3,19.2L105.3,19.2c1.7-1.6,2.5-2.1,4.9-2.2c1.3,0,2.3,0.4,3.3,1l-1.4,2.7
			c-0.9-0.4-1.2-0.5-2.2-0.5c-4.1,0-4.7,4.8-4.7,7.7v10.9h-3.7V17.5h3.7V19.2L105.3,19.2z"/>
		<path id="XMLID_92_" class="st1" d="M120.9,11.3c0,1.5-1.2,2.6-2.6,2.6c-1.4,0-2.6-1.2-2.6-2.6c0-1.4,1.2-2.6,2.6-2.6
			C119.7,8.6,120.9,9.8,120.9,11.3z"/>
		<rect id="XMLID_91_" x="116.4" y="17.1" class="st1" width="3.7" height="21.8"/>
		<path id="XMLID_89_" class="st1" d="M124.1,17.1h4.6l5.7,7.4l5.7-7.4h4.7l-8,10.2l9.1,11.6h-4.5l-6.9-8.9l-7,8.9h-4.7l9.3-11.6
			L124.1,17.1z"/>
		<g id="XMLID_82_">
			<path id="XMLID_86_" class="st1" d="M148.3,19.8h1c0.4,0,0.7-0.1,0.7-0.6c0-0.4-0.3-0.6-0.7-0.6h-1V19.8z M147.9,18.3h1.5
				c0.5,0,1.1,0.2,1.1,1c0,0.4-0.2,0.8-0.8,0.9l0.8,1.4h-0.5l-0.8-1.4h-0.8v1.4h-0.4V18.3z"/>
			<path id="XMLID_83_" class="st1" d="M149.1,22.4c1.3,0,2.4-1.1,2.4-2.4c0-1.3-1.1-2.4-2.4-2.4c-1.3,0-2.4,1.1-2.4,2.4
				C146.7,21.3,147.8,22.4,149.1,22.4 M146.2,20c0-1.6,1.3-2.9,2.9-2.9s2.9,1.3,2.9,2.9c0,1.6-1.3,2.9-2.9,2.9
				C147.5,22.9,146.2,21.6,146.2,20"/>
		</g>
		<path id="XMLID_2_" class="st1" d="M53.5,17.5v2c-2.7-2.1-5.2-2.4-8.1-2.4c-6.9,0-10.9,5.3-10.9,11.3c0,5.8,4,11.1,10.8,11.1
			c3.2,0,5.9-0.7,7.9-3.1h0.1V39h3.9V34V28v-0.2V17.5H53.5L53.5,17.5z M45.9,36.2c-4.9,0-7.5-3.9-7.5-8c0-4,2.9-7.6,7.5-7.6
			c4.8,0,7.7,3.4,7.7,7.6C53.5,32.4,50.9,36.2,45.9,36.2z"/>
	</g>
	<g class="st2">
		<path id="XMLID_21_" class="st1" d="M37.2,47.9h0.9v6.4h3.1v0.8h-4V47.9z"/>
		<path class="st1" d="M47.3,52.5c0,1.9-1.3,2.7-2.6,2.7c-1.4,0-2.5-1-2.5-2.7c0-1.7,1.1-2.7,2.6-2.7C46.2,49.8,47.3,50.9,47.3,52.5
			z M43.1,52.5c0,1.1,0.7,2,1.6,2c0.9,0,1.6-0.8,1.6-2c0-0.9-0.4-2-1.5-2C43.6,50.5,43.1,51.5,43.1,52.5z"/>
		<path id="XMLID_18_" class="st1" d="M49.2,49.9l1,2.9c0.2,0.5,0.3,0.9,0.4,1.3h0c0.1-0.4,0.3-0.9,0.4-1.3l1-2.9h1l-2,5.2h-0.9
			l-2-5.2H49.2z"/>
		<path class="st1" d="M54.9,52.7c0,1.3,0.8,1.8,1.8,1.8c0.7,0,1.1-0.1,1.4-0.3l0.2,0.7c-0.3,0.2-0.9,0.3-1.7,0.3
			c-1.6,0-2.5-1-2.5-2.6c0-1.6,0.9-2.8,2.4-2.8c1.7,0,2.1,1.5,2.1,2.4c0,0.2,0,0.3,0,0.4L54.9,52.7L54.9,52.7z M57.6,52
			c0-0.6-0.2-1.5-1.3-1.5c-0.9,0-1.4,0.9-1.4,1.5H57.6z"/>
		<path id="XMLID_15_" class="st1" d="M63.2,49.9l1.1,3c0.1,0.3,0.2,0.7,0.3,1.1h0c0.1-0.3,0.2-0.7,0.3-1.1l1-3h1l-1.4,3.7
			c-0.7,1.8-1.1,2.7-1.8,3.2c-0.5,0.4-0.9,0.6-1.2,0.6l-0.2-0.8c0.2-0.1,0.5-0.2,0.8-0.5c0.3-0.2,0.6-0.6,0.8-1
			c0-0.1,0.1-0.2,0.1-0.2s0-0.1-0.1-0.2l-1.9-4.8L63.2,49.9L63.2,49.9z"/>
		<path class="st1" d="M72.9,52.5c0,1.9-1.3,2.7-2.6,2.7c-1.4,0-2.5-1-2.5-2.7c0-1.7,1.1-2.7,2.6-2.7C71.9,49.8,72.9,50.9,72.9,52.5
			z M68.8,52.5c0,1.1,0.7,2,1.6,2c0.9,0,1.6-0.8,1.6-2c0-0.9-0.4-2-1.5-2C69.3,50.5,68.8,51.5,68.8,52.5z"/>
		<path id="XMLID_12_" class="st1" d="M78.9,53.7c0,0.5,0,1,0,1.4h-0.8l-0.1-0.8h0c-0.2,0.4-0.8,1-1.7,1c-0.8,0-1.8-0.5-1.8-2.3v-3
			h0.9v2.9c0,1,0.3,1.6,1.2,1.6c0.6,0,1.1-0.4,1.2-0.9c0-0.1,0.1-0.3,0.1-0.5v-3.2h0.9L78.9,53.7L78.9,53.7z"/>
		<path id="XMLID_11_" class="st1" d="M81,51.5c0-0.6,0-1.1,0-1.6h0.8l0,1h0c0.2-0.7,0.8-1.1,1.4-1.1c0.1,0,0.2,0,0.3,0v0.9
			c-0.1,0-0.2,0-0.3,0c-0.7,0-1.1,0.5-1.3,1.2c0,0.1,0,0.3,0,0.4v2.8H81L81,51.5L81,51.5z"/>
		<path id="XMLID_10_" class="st1" d="M87.6,47.5h0.9v3.2h0c0.2-0.3,0.4-0.5,0.7-0.7c0.3-0.2,0.6-0.3,1-0.3c0.7,0,1.8,0.4,1.8,2.2
			v3.1h-0.9v-3c0-0.8-0.3-1.5-1.2-1.5c-0.6,0-1.1,0.4-1.3,0.9c-0.1,0.1-0.1,0.3-0.1,0.5v3.1h-0.9L87.6,47.5L87.6,47.5z"/>
		<path class="st1" d="M98.7,52.5c0,1.9-1.3,2.7-2.6,2.7c-1.4,0-2.5-1-2.5-2.7c0-1.7,1.1-2.7,2.6-2.7C97.7,49.8,98.7,50.9,98.7,52.5
			z M94.6,52.5c0,1.1,0.7,2,1.6,2c0.9,0,1.6-0.8,1.6-2c0-0.9-0.4-2-1.5-2C95.1,50.5,94.6,51.5,94.6,52.5z"/>
		<path id="XMLID_7_" class="st1" d="M100.4,51.3c0-0.5,0-1,0-1.4h0.8l0,0.8h0c0.3-0.5,0.8-0.9,1.6-0.9c0.7,0,1.2,0.4,1.5,1h0
			c0.2-0.3,0.4-0.5,0.6-0.7c0.3-0.2,0.7-0.4,1.1-0.4c0.7,0,1.7,0.5,1.7,2.2v3h-0.9v-2.9c0-1-0.4-1.6-1.1-1.6c-0.5,0-0.9,0.4-1.1,0.9
			c0,0.1-0.1,0.3-0.1,0.5v3.2h-0.9V52c0-0.8-0.4-1.4-1.1-1.4c-0.6,0-1,0.5-1.2,0.9c-0.1,0.1-0.1,0.3-0.1,0.5v3.1h-0.9L100.4,51.3
			L100.4,51.3z"/>
		<path class="st1" d="M110.3,52.7c0,1.3,0.8,1.8,1.8,1.8c0.7,0,1.1-0.1,1.4-0.3l0.2,0.7c-0.3,0.2-0.9,0.3-1.7,0.3
			c-1.6,0-2.5-1-2.5-2.6c0-1.6,0.9-2.8,2.4-2.8c1.7,0,2.1,1.5,2.1,2.4c0,0.2,0,0.3,0,0.4L110.3,52.7L110.3,52.7z M113,52
			c0-0.6-0.2-1.5-1.3-1.5c-0.9,0-1.4,0.9-1.4,1.5H113z"/>
	</g>
</g>
</svg>
